<mxfile host="Electron" agent="Mozilla/5.0 (Windows NT 10.0; Win64; x64) AppleWebKit/537.36 (KHTML, like Gecko) draw.io/28.1.2 Chrome/138.0.7204.243 Electron/37.4.0 Safari/537.36" version="28.1.2">
  <diagram name="Página-1" id="8jHzjNvl9FMA_JsbMSOz">
    <mxGraphModel dx="1106" dy="661" grid="1" gridSize="10" guides="1" tooltips="1" connect="1" arrows="1" fold="1" page="1" pageScale="1" pageWidth="827" pageHeight="1169" math="0" shadow="0">
      <root>
        <mxCell id="0" />
        <mxCell id="1" parent="0" />
        <mxCell id="HtTwcpP9J3B6t8BJMx7v-1" value="&lt;font style=&quot;font-size: 20px; color: rgb(255, 255, 255);&quot;&gt;Assignatures&lt;/font&gt;&lt;div&gt;&lt;span style=&quot;background-color: transparent; color: rgb(255, 255, 255); font-size: 20px;&quot;&gt;Codi (clau)&lt;/span&gt;&lt;/div&gt;&lt;div&gt;&lt;span style=&quot;background-color: transparent; color: rgb(255, 255, 255); font-size: 20px;&quot;&gt;Nom&lt;/span&gt;&lt;/div&gt;" style="rounded=0;whiteSpace=wrap;html=1;strokeColor=#000000;fillColor=#007FFF;" parent="1" vertex="1">
          <mxGeometry x="130" y="100" width="120" height="210" as="geometry" />
        </mxCell>
        <mxCell id="HtTwcpP9J3B6t8BJMx7v-4" value="&lt;font style=&quot;font-size: 20px; color: rgb(255, 255, 255);&quot;&gt;Alumnes&lt;/font&gt;&lt;div&gt;&lt;font style=&quot;font-size: 20px; color: rgb(255, 255, 255);&quot;&gt;Nom&lt;/font&gt;&lt;/div&gt;&lt;div&gt;&lt;font style=&quot;font-size: 20px; color: rgb(255, 255, 255);&quot;&gt;Llinatges&lt;/font&gt;&lt;/div&gt;&lt;div&gt;&lt;font style=&quot;font-size: 20px; color: rgb(255, 255, 255);&quot;&gt;nºexpedient(clau)&lt;/font&gt;&lt;/div&gt;&lt;div&gt;&lt;font style=&quot;font-size: 20px; color: rgb(255, 255, 255);&quot;&gt;data naixament&lt;/font&gt;&lt;/div&gt;" style="rounded=0;whiteSpace=wrap;html=1;strokeColor=#000000;fillColor=#007FFF;" parent="1" vertex="1">
          <mxGeometry x="40" y="510" width="290" height="240" as="geometry" />
        </mxCell>
        <mxCell id="HtTwcpP9J3B6t8BJMx7v-5" value="&lt;font style=&quot;font-size: 20px; color: rgb(255, 255, 255);&quot;&gt;Professors&lt;/font&gt;&lt;div&gt;&lt;font style=&quot;font-size: 20px; color: rgb(255, 255, 255);&quot;&gt;Nom&lt;/font&gt;&lt;/div&gt;&lt;div&gt;&lt;font style=&quot;font-size: 20px; color: rgb(255, 255, 255);&quot;&gt;Telèfon&lt;/font&gt;&lt;/div&gt;&lt;div&gt;&lt;font style=&quot;font-size: 20px; color: rgb(255, 255, 255);&quot;&gt;DNI (clau)&lt;/font&gt;&lt;/div&gt;" style="rounded=0;whiteSpace=wrap;html=1;strokeColor=#000000;fillColor=#007FFF;" parent="1" vertex="1">
          <mxGeometry x="660" y="100" width="120" height="210" as="geometry" />
        </mxCell>
        <mxCell id="HtTwcpP9J3B6t8BJMx7v-6" value="&lt;font style=&quot;color: rgb(255, 255, 255); font-size: 18px;&quot;&gt;Imparteix&lt;/font&gt;" style="rhombus;whiteSpace=wrap;html=1;strokeColor=#000000;fillColor=#009900;" parent="1" vertex="1">
          <mxGeometry x="390" y="100" width="130" height="80" as="geometry" />
        </mxCell>
        <mxCell id="HtTwcpP9J3B6t8BJMx7v-8" value="&lt;font style=&quot;color: rgb(255, 255, 255); font-size: 19px;&quot;&gt;Cursen&lt;/font&gt;" style="rhombus;whiteSpace=wrap;html=1;strokeColor=#000000;fillColor=#009900;rotation=30;" parent="1" vertex="1">
          <mxGeometry x="300" y="340" width="130" height="80" as="geometry" />
        </mxCell>
        <mxCell id="HtTwcpP9J3B6t8BJMx7v-9" value="" style="endArrow=none;html=1;rounded=0;exitX=1;exitY=0.5;exitDx=0;exitDy=0;entryX=0;entryY=0;entryDx=0;entryDy=0;" parent="1" source="HtTwcpP9J3B6t8BJMx7v-8" target="HtTwcpP9J3B6t8BJMx7v-26" edge="1">
          <mxGeometry width="50" height="50" relative="1" as="geometry">
            <mxPoint x="390" y="370" as="sourcePoint" />
            <mxPoint x="440" y="320" as="targetPoint" />
          </mxGeometry>
        </mxCell>
        <mxCell id="HtTwcpP9J3B6t8BJMx7v-10" value="" style="endArrow=none;html=1;rounded=0;exitX=0;exitY=0.5;exitDx=0;exitDy=0;entryX=0.5;entryY=1;entryDx=0;entryDy=0;" parent="1" source="HtTwcpP9J3B6t8BJMx7v-8" target="HtTwcpP9J3B6t8BJMx7v-1" edge="1">
          <mxGeometry width="50" height="50" relative="1" as="geometry">
            <mxPoint x="390" y="370" as="sourcePoint" />
            <mxPoint x="440" y="320" as="targetPoint" />
          </mxGeometry>
        </mxCell>
        <mxCell id="HtTwcpP9J3B6t8BJMx7v-11" value="" style="endArrow=none;html=1;rounded=0;entryX=0;entryY=0.5;entryDx=0;entryDy=0;" parent="1" target="HtTwcpP9J3B6t8BJMx7v-6" edge="1">
          <mxGeometry width="50" height="50" relative="1" as="geometry">
            <mxPoint x="250" y="140" as="sourcePoint" />
            <mxPoint x="440" y="320" as="targetPoint" />
          </mxGeometry>
        </mxCell>
        <mxCell id="HtTwcpP9J3B6t8BJMx7v-12" value="" style="endArrow=none;html=1;rounded=0;" parent="1" source="HtTwcpP9J3B6t8BJMx7v-6" edge="1">
          <mxGeometry width="50" height="50" relative="1" as="geometry">
            <mxPoint x="390" y="370" as="sourcePoint" />
            <mxPoint x="659" y="140" as="targetPoint" />
          </mxGeometry>
        </mxCell>
        <mxCell id="HtTwcpP9J3B6t8BJMx7v-13" value="(1,1)" style="text;html=1;align=center;verticalAlign=middle;resizable=0;points=[];autosize=1;strokeColor=none;fillColor=none;" parent="1" vertex="1">
          <mxGeometry x="610" y="110" width="50" height="30" as="geometry" />
        </mxCell>
        <mxCell id="HtTwcpP9J3B6t8BJMx7v-14" value="(1,N)" style="text;html=1;align=center;verticalAlign=middle;resizable=0;points=[];autosize=1;strokeColor=none;fillColor=none;" parent="1" vertex="1">
          <mxGeometry x="250" y="110" width="50" height="30" as="geometry" />
        </mxCell>
        <mxCell id="HtTwcpP9J3B6t8BJMx7v-17" value="(1,N)" style="text;html=1;align=center;verticalAlign=middle;resizable=0;points=[];autosize=1;strokeColor=none;fillColor=none;" parent="1" vertex="1">
          <mxGeometry x="430" y="70" width="50" height="30" as="geometry" />
        </mxCell>
        <mxCell id="HtTwcpP9J3B6t8BJMx7v-18" value="(N,M)" style="text;html=1;align=center;verticalAlign=middle;resizable=0;points=[];autosize=1;strokeColor=none;fillColor=none;rotation=30;" parent="1" vertex="1">
          <mxGeometry x="320" y="310" width="50" height="30" as="geometry" />
        </mxCell>
        <mxCell id="HtTwcpP9J3B6t8BJMx7v-22" value="(1,N)" style="text;html=1;align=center;verticalAlign=middle;resizable=0;points=[];autosize=1;strokeColor=none;fillColor=none;" parent="1" vertex="1">
          <mxGeometry x="500" y="410" width="50" height="30" as="geometry" />
        </mxCell>
        <mxCell id="HtTwcpP9J3B6t8BJMx7v-24" value="(1,N)" style="text;html=1;align=center;verticalAlign=middle;resizable=0;points=[];autosize=1;strokeColor=none;fillColor=none;" parent="1" vertex="1">
          <mxGeometry x="250" y="280" width="50" height="30" as="geometry" />
        </mxCell>
        <mxCell id="HtTwcpP9J3B6t8BJMx7v-26" value="&lt;font style=&quot;color: rgb(255, 255, 255); font-size: 32px;&quot;&gt;Matricula&lt;/font&gt;&lt;div&gt;&lt;font color=&quot;#ffffff&quot;&gt;&lt;font style=&quot;font-size: 29px;&quot;&gt;exp_alumne(clau)&lt;/font&gt;&lt;/font&gt;&lt;/div&gt;&lt;div&gt;&lt;font color=&quot;#ffffff&quot;&gt;&lt;span style=&quot;font-size: 29px;&quot;&gt;codi_assignatura&lt;/span&gt;&lt;/font&gt;&lt;/div&gt;&lt;div&gt;&lt;font color=&quot;#ffffff&quot;&gt;&lt;span style=&quot;font-size: 29px;&quot;&gt;any&lt;br&gt;&lt;/span&gt;&lt;/font&gt;&lt;div&gt;&lt;br&gt;&lt;/div&gt;&lt;/div&gt;" style="rounded=0;whiteSpace=wrap;html=1;fillColor=#007FFF;" parent="1" vertex="1">
          <mxGeometry x="500" y="440" width="230" height="240" as="geometry" />
        </mxCell>
        <mxCell id="HtTwcpP9J3B6t8BJMx7v-28" value="" style="endArrow=none;html=1;rounded=0;exitX=1;exitY=0.5;exitDx=0;exitDy=0;entryX=0;entryY=0.388;entryDx=0;entryDy=0;entryPerimeter=0;" parent="1" source="HtTwcpP9J3B6t8BJMx7v-29" target="HtTwcpP9J3B6t8BJMx7v-26" edge="1">
          <mxGeometry width="50" height="50" relative="1" as="geometry">
            <mxPoint x="390" y="480" as="sourcePoint" />
            <mxPoint x="440" y="430" as="targetPoint" />
          </mxGeometry>
        </mxCell>
        <mxCell id="HtTwcpP9J3B6t8BJMx7v-30" value="" style="endArrow=none;html=1;rounded=0;exitX=1;exitY=0.25;exitDx=0;exitDy=0;entryX=0;entryY=0.5;entryDx=0;entryDy=0;" parent="1" source="HtTwcpP9J3B6t8BJMx7v-4" target="HtTwcpP9J3B6t8BJMx7v-29" edge="1">
          <mxGeometry width="50" height="50" relative="1" as="geometry">
            <mxPoint x="330" y="570" as="sourcePoint" />
            <mxPoint x="496" y="512" as="targetPoint" />
          </mxGeometry>
        </mxCell>
        <mxCell id="HtTwcpP9J3B6t8BJMx7v-29" value="&lt;font style=&quot;color: rgb(255, 255, 255); font-size: 20px;&quot;&gt;Tenen&lt;/font&gt;" style="rhombus;whiteSpace=wrap;html=1;rotation=0;fillColor=#009900;" parent="1" vertex="1">
          <mxGeometry x="355.25" y="510" width="116.5" height="80" as="geometry" />
        </mxCell>
        <mxCell id="HtTwcpP9J3B6t8BJMx7v-31" value="(N,M)" style="text;html=1;align=center;verticalAlign=middle;resizable=0;points=[];autosize=1;strokeColor=none;fillColor=none;" parent="1" vertex="1">
          <mxGeometry x="385" y="488" width="50" height="30" as="geometry" />
        </mxCell>
        <mxCell id="HtTwcpP9J3B6t8BJMx7v-32" value="(1,24)" style="text;html=1;align=center;verticalAlign=middle;resizable=0;points=[];autosize=1;strokeColor=none;fillColor=none;rotation=-25;" parent="1" vertex="1">
          <mxGeometry x="330" y="518" width="50" height="30" as="geometry" />
        </mxCell>
        <mxCell id="HtTwcpP9J3B6t8BJMx7v-33" value="(1,N)" style="text;html=1;align=center;verticalAlign=middle;resizable=0;points=[];autosize=1;strokeColor=none;fillColor=none;rotation=-30;" parent="1" vertex="1">
          <mxGeometry x="460" y="510" width="50" height="30" as="geometry" />
        </mxCell>
      </root>
    </mxGraphModel>
  </diagram>
</mxfile>
